# File created by Blade
# Date/Time:  Wed Jan 21 15:55:59 2015
#---------------------------------------------------------
:version 1.10
:name HOM
:units
  mass 1.0
  length 1.000000
  angle deg
:documentation
     Acclaim Skeleton File
:root
   axis xyz
   order TX TY TZ RX RY RZ
   position 0.000000 0.000000 0.000000
   orientation 0 0 0
:bonedata
   begin
      id 1
      name Spine_dum
      direction 0.000000 1.000000 0.000000
      length 7.067664
      axis 0.0 0.0 0.0 xyz
   end
   begin
      id 2
      name LeftUpLeg_dum
      direction 1.000000 0.000000 0.000000
      length 4.013002
      axis 0.0 0.0 0.0 xyz
   end
   begin
      id 3
      name RightUpLeg_dum
      direction -1.000000 0.000000 0.000000
      length 4.013002
      axis 0.0 0.0 0.0 xyz
   end
   begin
      id 4
      name Spine
      direction 0.000000 1.000000 0.000000
      length 0.000000
      axis 0.0 0.0 0.0 xyz
      dof rx ry rz
   end
   begin
      id 5
      name Spine_dum1
      direction 0.000000 1.000000 0.000000
      length 15.039886
      axis 0.0 0.0 0.0 xyz
   end
   begin
      id 6
      name Spine_dum2
      direction 0.000000 1.000000 0.000000
      length 10.530368
      axis 0.0 0.0 0.0 xyz
   end
   begin
      id 7
      name Spine_dum3
      direction 0.000000 1.000000 0.000000
      length 10.530368
      axis 0.0 0.0 0.0 xyz
   end
   begin
      id 8
      name Head
      direction 0.000000 1.000000 0.000000
      length 4.527550
      axis 0.0 0.0 0.0 xyz
      dof rx ry rz
   end
   begin
      id 9
      name LeftShoulder
      direction 1.000000 0.000000 0.000000
      length 7.028855
      axis 0.0 0.0 -90.0 xyz
      dof rx ry rz
   end
   begin
      id 10
      name LeftArm
      direction 1.000000 0.000000 0.000000
      length 10.797705
      axis 0.0 0.0 -90.0 xyz
      dof rx ry rz
   end
   begin
      id 11
      name LeftForeArm
      direction 1.000000 0.000000 0.000000
      length 7.907442
      axis 0.0 0.0 -90.0 xyz
      dof ry rz rx
   end
   begin
      id 12
      name LeftHand
      direction 0.000000 0.000000 0.000000
      length 0.000000
      axis 0.0 0.0 -90.0 xyz
      dof rx ry rz
   end
   begin
      id 13
      name LeftHand_dum1
      direction 0.000000 0.000000 0.000000
      length 0.000000
      axis 0.0 0.0 -90.0 xyz
   end
   begin
      id 14
      name LeftHand_dum2
      direction 1.000000 0.000000 0.000000
      length 3.937000
      axis 0.0 0.0 -90.0 xyz
   end
   begin
      id 15
      name LeftHandThumb1
      direction 0.000000 0.000000 1.000000
      length 3.937000
      axis 0.0 0.0 -90.0 xyz
      dof rx rz ry
   end
   begin
      id 16
      name RightShoulder
      direction -1.000000 0.000000 0.000000
      length 7.028855
      axis 0.0 0.0 90.0 xyz
      dof rx ry rz
   end
   begin
      id 17
      name RightArm
      direction -1.000000 0.000000 0.000000
      length 10.797705
      axis 0.0 0.0 90.0 xyz
      dof rx ry rz
   end
   begin
      id 18
      name RightForeArm
      direction -1.000000 0.000000 0.000000
      length 7.907442
      axis 0.0 0.0 90.0 xyz
      dof ry rz rx
   end
   begin
      id 19
      name RightHand
      direction 0.000000 0.000000 0.000000
      length 0.000000
      axis 0.0 0.0 90.0 xyz
      dof rx ry rz
   end
   begin
      id 20
      name RightHand_dum1
      direction 0.000000 0.000000 0.000000
      length 0.000000
      axis 0.0 0.0 90.0 xyz
   end
   begin
      id 21
      name RightHand_dum2
      direction -1.000000 0.000000 0.000000
      length 3.937000
      axis 0.0 0.0 90.0 xyz
   end
   begin
      id 22
      name RightHandThumb1
      direction 0.000000 0.000000 1.000000
      length 3.937000
      axis 0.0 0.0 90.0 xyz
      dof rx rz ry
   end
   begin
      id 23
      name LeftUpLeg
      direction 0.000000 -1.000000 0.000000
      length 16.899758
      axis 0.0 0.0 0.0 xyz
      dof rx ry rz
   end
   begin
      id 24
      name LeftLeg
      direction 0.000000 -1.000000 0.000000
      length 17.389183
      axis 0.0 0.0 0.0 xyz
      dof rx ry rz
   end
   begin
      id 25
      name LeftFoot
      direction 0.000000 -0.258819 0.965926
      length 4.924528
      axis 15.0 0.0 0.0 xyz
      dof rx ry rz
   end
   begin
      id 26
      name LeftToeBase
      direction 0.000000 0.000000 1.000000
      length 2.952750
      axis 0.0 0.0 0.0 xyz
      dof rx ry rz
   end
   begin
      id 27
      name RightUpLeg
      direction 0.000000 -1.000000 0.000000
      length 16.899758
      axis 0.0 0.0 0.0 xyz
      dof rx ry rz
   end
   begin
      id 28
      name RightLeg
      direction 0.000000 -1.000000 0.000000
      length 17.389183
      axis 0.0 0.0 0.0 xyz
      dof rx ry rz
   end
   begin
      id 29
      name RightFoot
      direction 0.000000 -0.258819 0.965926
      length 4.924528
      axis 15.0 0.0 0.0 xyz
      dof rx ry rz
   end
   begin
      id 30
      name RightToeBase
      direction 0.000000 0.000000 1.000000
      length 2.952750
      axis 0.0 0.0 0.0 xyz
      dof rx ry rz
   end
:hierarchy
   begin
      root Spine_dum LeftUpLeg_dum RightUpLeg_dum
      Spine_dum Spine
      LeftUpLeg_dum LeftUpLeg
      RightUpLeg_dum RightUpLeg
      Spine Spine_dum1 Spine_dum2 Spine_dum3
      Spine_dum1 Head
      Spine_dum2 LeftShoulder
      Spine_dum3 RightShoulder
      LeftShoulder LeftArm
      LeftArm LeftForeArm
      LeftForeArm LeftHand
      LeftHand LeftHand_dum1 LeftHand_dum2
      LeftHand_dum1 LeftHandThumb1
      RightShoulder RightArm
      RightArm RightForeArm
      RightForeArm RightHand
      RightHand RightHand_dum1 RightHand_dum2
      RightHand_dum1 RightHandThumb1
      LeftUpLeg LeftLeg
      LeftLeg LeftFoot
      LeftFoot LeftToeBase
      RightUpLeg RightLeg
      RightLeg RightFoot
      RightFoot RightToeBase
   end

# File created by Blade
# Date/Time:  Wed Jan 21 15:55:51 2015
# Frame Rate: 120.000 fps
#------------------------------------------------------
:FULLY-SPECIFIED
:DEGREES
138
root 16.513889 35.716170 -18.543076 -179.233358 10.019770 -178.303428
Spine 15.140443 7.420277 -2.703035
Head 24.710649 -6.277839 5.305443
LeftShoulder 1.090594 -23.289699 -7.072135
LeftArm -1.640662 5.260040 -64.754861
LeftForeArm 2.606380 -0.000000 -1.395897
LeftHand -3.997799 -0.000000 -4.337731
LeftHandThumb1 -26.253704 0.000000 33.147579
RightShoulder -3.620780 -10.415543 11.850975
RightArm 29.629093 7.836998 66.578657
RightForeArm -25.769014 -0.000000 7.138294
RightHand -3.540835 -0.000000 3.400062
RightHandThumb1 -24.326973 -0.000000 -32.862282
LeftUpLeg -3.255981 17.514942 0.380761
LeftLeg 9.004527 -0.000000 -0.000000
LeftFoot -26.281472 27.833190 -15.703969
LeftToeBase 24.594961 -0.000000 -0.000000
RightUpLeg -10.620219 -8.088573 -2.620512
RightLeg 17.225146 -0.000000 -0.000000
RightFoot -17.929239 -14.448743 20.993564
RightToeBase 23.993911 -0.000000 -0.000000
139
root 16.472440 35.716240 -18.457767 -179.045774 10.394627 -178.337285
Spine 15.585969 7.546043 -2.815723
Head 24.508895 -6.125039 5.359385
LeftShoulder 1.497212 -23.446681 -7.182729
LeftArm -1.493080 6.450545 -65.944634
LeftForeArm 3.271266 -0.000000 -1.339508
LeftHand -3.847529 -0.000000 -4.395933
LeftHandThumb1 -26.253704 0.000000 33.147579
RightShoulder -3.378860 -10.291099 11.862210
RightArm 29.881712 7.080336 67.080316
RightForeArm -25.790720 -0.000000 7.148969
RightHand -3.486470 -0.000000 3.571913
RightHandThumb1 -24.326973 -0.000000 -32.862282
LeftUpLeg -3.554972 18.023682 0.215354
LeftLeg 8.984826 -0.000000 -0.000000
LeftFoot -26.129363 27.695980 -15.521420
LeftToeBase 24.629434 -0.000000 -0.000000
RightUpLeg -11.373411 -8.256916 -2.720238
RightLeg 17.960216 -0.000000 -0.000000
RightFoot -17.773764 -13.355622 21.502712
RightToeBase 24.069264 -0.000000 -0.000000
140
root 16.435430 35.715268 -18.379781 -178.867800 10.847184 -178.404290
Spine 16.003510 7.777646 -2.981932
Head 24.294926 -5.974793 5.442029
LeftShoulder 1.871832 -23.579569 -7.259805
LeftArm -1.276575 7.796290 -67.069676
LeftForeArm 3.669610 -0.000000 -1.244573
LeftHand -3.717457 0.000000 -4.599870
LeftHandThumb1 -26.253704 0.000000 33.147579
RightShoulder -3.182106 -10.185735 11.871145
RightArm 30.160641 6.235812 67.538002
RightForeArm -25.834952 -0.000000 7.144608
RightHand -3.498248 -0.000000 3.701373
RightHandThumb1 -24.326973 -0.000000 -32.862282
LeftUpLeg -3.789424 18.349448 0.027591
LeftLeg 8.895421 -0.000000 -0.000000
LeftFoot -26.035803 27.776132 -15.503823
LeftToeBase 24.603637 -0.000000 -0.000000
RightUpLeg -12.086057 -8.119481 -2.857648
RightLeg 18.643794 -0.000000 -0.000000
RightFoot -17.741015 -12.561939 21.831592
RightToeBase 23.269901 -0.000000 -0.000000
141
root 16.398624 35.714269 -18.311349 -178.736119 11.238716 -178.489247
Spine 16.426484 7.942489 -3.149871
Head 24.160019 -5.831425 5.471392
LeftShoulder 2.240583 -23.652794 -7.368431
LeftArm -1.087074 10.072166 -68.095348
LeftForeArm 3.234417 0.000000 -0.941793
LeftHand -3.547700 0.000000 -4.874976
LeftHandThumb1 -26.253704 0.000000 33.147579
RightShoulder -2.956077 -10.047248 11.840870
RightArm 30.330182 5.433581 67.982369
RightForeArm -25.898608 -0.000000 7.219869
RightHand -3.461401 0.000000 3.892168
RightHandThumb1 -24.326973 -0.000000 -32.862282
LeftUpLeg -3.954247 18.640746 -0.163273
LeftLeg 8.768988 -0.000000 -0.000000
LeftFoot -25.935023 27.838208 -15.481829
LeftToeBase 24.663385 -0.000000 -0.000000
RightUpLeg -12.729527 -8.050369 -3.030835
RightLeg 19.355358 -0.000000 -0.000000
RightFoot -17.809286 -11.654474 22.363970
RightToeBase 21.995729 -0.000000 -0.000000
142
root 16.359507 35.713559 -18.242785 -178.598151 11.580053 -178.619619
Spine 16.841018 8.053662 -3.363688
Head 24.008984 -5.631413 5.509122
LeftShoulder 2.535977 -23.814495 -7.434763
LeftArm -0.846951 11.855200 -69.101611
LeftForeArm 3.229217 -0.000000 -0.775959
LeftHand -3.453165 -0.000000 -4.914543
LeftHandThumb1 -26.253704 0.000000 33.147579
RightShoulder -2.728147 -9.966846 11.805115
RightArm 30.532303 4.500248 68.290880
RightForeArm -25.854561 -0.000000 7.322925
RightHand -3.450784 -0.000000 3.973168
RightHandThumb1 -24.326973 -0.000000 -32.862282
LeftUpLeg -4.141391 18.881478 -0.405346
LeftLeg 8.641699 -0.000000 -0.000000
LeftFoot -25.803457 27.856470 -15.484614
LeftToeBase 24.639279 -0.000000 -0.000000
RightUpLeg -13.374779 -8.084283 -3.240991
RightLeg 20.033600 -0.000000 -0.000000
RightFoot -17.911968 -10.806705 22.772161
RightToeBase 20.653441 -0.000000 -0.000000
143
root 16.324995 35.713681 -18.191888 -178.506440 11.853732 -178.717937
Spine 17.263959 8.145772 -3.494620
Head 23.903495 -5.513808 5.467922
LeftShoulder 2.870149 -23.966879 -7.542701
LeftArm -0.647049 13.398353 -70.064372
LeftForeArm 3.467942 -0.000000 -0.604271
LeftHand -3.150735 -0.000000 -4.820373
LeftHandThumb1 -26.253704 0.000000 33.147579
RightShoulder -2.541258 -9.873691 11.785476
RightArm 30.616752 3.267112 68.289676
RightForeArm -25.461661 0.000000 7.573829
RightHand -3.587569 -0.000000 4.073669
RightHandThumb1 -24.326973 -0.000000 -32.862282
LeftUpLeg -4.217604 19.053001 -0.591042
LeftLeg 8.446336 -0.000000 -0.000000
LeftFoot -25.671361 27.904295 -15.467479
LeftToeBase 24.601065 -0.000000 -0.000000
RightUpLeg -13.864160 -8.305518 -3.433816
RightLeg 20.587628 -0.000000 -0.000000
RightFoot -17.874433 -9.804155 23.315637
RightToeBase 18.777746 -0.000000 -0.000000
144
root 16.289497 35.712563 -18.150468 -178.480556 12.064858 -178.840801
Spine 17.736584 8.100227 -3.656401
Head 23.824314 -5.293388 5.429267
LeftShoulder 3.060657 -24.088602 -7.598536
LeftArm -0.350864 14.864747 -70.961689
LeftForeArm 3.579144 -0.000000 -0.434487
LeftHand -3.048674 0.000000 -4.818116
LeftHandThumb1 -26.253704 0.000000 33.147579
RightShoulder -2.313303 -9.692605 11.715277
RightArm 30.647301 1.901073 68.229467
RightForeArm -24.940042 -0.000000 7.742127
RightHand -3.628497 0.000000 4.233622
RightHandThumb1 -24.326973 -0.000000 -32.862282
LeftUpLeg -4.217194 19.177477 -0.784460
LeftLeg 8.235484 -0.000000 -0.000000
LeftFoot -25.527212 27.965712 -15.432888
LeftToeBase 24.588217 -0.000000 -0.000000
RightUpLeg -14.224468 -8.438640 -3.678184
RightLeg 21.067219 -0.000000 -0.000000
RightFoot -17.998425 -9.033611 23.663309
RightToeBase 17.426176 -0.000000 -0.000000
145
root 16.277295 35.709957 -18.061876 -178.189853 12.523114 -178.947098
Spine 17.963476 8.417004 -3.944641
Head 23.595334 -5.200729 5.549779
LeftShoulder 3.293779 -24.210427 -7.448347
LeftArm 0.037641 16.183949 -71.886442
LeftForeArm 3.847486 -0.000000 -0.261371
LeftHand -2.867763 -0.000000 -4.692300
LeftHandThumb1 -26.253704 0.000000 33.147579
RightShoulder -2.134925 -9.555080 11.658096
RightArm 30.764516 0.905262 68.521805
RightForeArm -24.807942 -0.000000 7.963655
RightHand -3.744363 -0.000000 4.133395
RightHandThumb1 -24.326973 -0.000000 -32.862282
LeftUpLeg -4.584658 19.538112 -1.014612
LeftLeg 8.121004 -0.000000 -0.000000
LeftFoot -25.397250 27.996488 -15.402938
LeftToeBase 24.670078 -0.000000 -0.000000
RightUpLeg -14.999367 -8.034906 -3.824955
RightLeg 21.612852 -0.000000 -0.000000
RightFoot -18.129704 -8.546717 24.183294
RightToeBase 15.454944 -0.000000 -0.000000
146
root 16.259332 35.708765 -18.002215 -178.010485 12.765704 -179.043601
Spine 18.268659 8.479363 -4.142324
Head 23.463710 -5.067367 5.581994
LeftShoulder 3.413481 -24.371388 -7.365468
LeftArm 0.417251 17.600537 -72.756712
LeftForeArm 3.907534 -0.000000 -0.156557
LeftHand -2.815624 -0.000000 -4.638444
LeftHandThumb1 -26.253704 0.000000 33.147579
RightShoulder -1.968316 -9.418714 11.577482
RightArm 30.859067 -0.064090 68.729741
RightForeArm -24.829617 -0.000000 8.123985
RightHand -3.636537 -0.000000 4.012970
RightHandThumb1 -24.326973 -0.000000 -32.862282
LeftUpLeg -4.801286 19.724680 -1.202863
LeftLeg 7.988418 -0.000000 -0.000000
LeftFoot -25.245529 27.992545 -15.367028
LeftToeBase 24.628297 -0.000000 -0.000000
RightUpLeg -15.482373 -8.032816 -3.994938
RightLeg 21.966946 -0.000000 -0.000000
RightFoot -18.386564 -8.026108 24.086706
RightToeBase 14.945012 -0.000000 -0.000000
147
root 16.242502 35.707374 -17.957436 -177.878117 12.908144 -179.168222
Spine 18.580729 8.490572 -4.342259
Head 23.381984 -4.957478 5.635603
LeftShoulder 3.531276 -24.501342 -7.291019
LeftArm 0.780819 19.110774 -73.601985
LeftForeArm 3.863172 -0.000000 0.039401
LeftHand -2.825311 -0.000000 -3.777980
LeftHandThumb1 -26.253704 0.000000 33.147579
RightShoulder -1.847155 -9.300316 11.520962
RightArm 30.942600 -1.099478 68.838430
RightForeArm -24.877152 -0.000000 8.300072
RightHand -3.691720 0.000000 3.620153
RightHandThumb1 -24.326973 -0.000000 -32.862282
LeftUpLeg -4.939800 19.740658 -1.400874
LeftLeg 7.819385 -0.000000 -0.000000
LeftFoot -25.110120 28.040686 -15.391536
LeftToeBase 24.552016 -0.000000 -0.000000
RightUpLeg -15.826202 -8.263823 -4.180679
RightLeg 22.155534 -0.000000 -0.000000
RightFoot -18.678581 -7.908252 23.439745
RightToeBase 13.969130 -0.000000 -0.000000
148
root 16.232795 35.708404 -17.917799 -177.779686 13.165999 -179.301533
Spine 18.891074 8.569922 -4.546617
Head 23.372134 -4.825029 5.568974
LeftShoulder 3.322001 -24.195119 -7.174380
LeftArm 1.688058 22.800307 -74.173195
LeftForeArm 2.084766 -0.000000 0.417088
LeftHand -2.821889 0.000000 -3.136123
LeftHandThumb1 -26.253704 0.000000 33.147579
RightShoulder -1.637165 -9.281225 11.430026
RightArm 31.046479 -1.926592 69.038524
RightForeArm -25.203629 -0.000000 8.509142
RightHand -3.672840 -0.000000 3.446650
RightHandThumb1 -24.326973 -0.000000 -32.862282
LeftUpLeg -5.013169 20.009631 -1.588211
LeftLeg 7.613619 -0.000000 -0.000000
LeftFoot -24.948010 27.988949 -15.417250
LeftToeBase 24.559422 -0.000000 -0.000000
RightUpLeg -16.122096 -8.350896 -4.389604
RightLeg 22.234006 -0.000000 -0.000000
RightFoot -19.206292 -8.331557 23.202956
RightToeBase 14.016226 -0.000000 -0.000000
